<?xml version="1.0" encoding="utf-8"?>
<!-- Generator: Adobe Illustrator 19.0.0, SVG Export Plug-In . SVG Version: 6.00 Build 0)  -->
<svg version="1.1" id="Layer_1" xmlns="http://www.w3.org/2000/svg" xmlns:xlink="http://www.w3.org/1999/xlink" x="0px" y="0px"
	 viewBox="-87 89 24 24" style="enable-background:new -87 89 24 24;" xml:space="preserve">
<style type="text/css">
	.st0{fill:none;}
	.st1{fill:#9933CC;stroke:#9933CC;stroke-miterlimit:10;}
</style>
<path class="st0" d="M-87,89h24v24h-24V89z"/>
<path class="st1" d="M-67.6,102c0-0.3,0.1-0.6,0.1-1s0-0.7-0.1-1l2.1-1.7c0.2-0.2,0.2-0.4,0.1-0.6l-2-3.5c-0.1-0.2-0.4-0.3-0.6-0.2
	l-2.5,1c-0.5-0.4-1.1-0.7-1.7-1l-0.4-2.7c0-0.2-0.2-0.4-0.5-0.4h-4c-0.3,0-0.5,0.2-0.5,0.4l-0.4,2.7c-0.6,0.3-1.2,0.6-1.7,1l-2.5-1
	c-0.2-0.1-0.5,0-0.6,0.2l-2,3.5c-0.1,0.2-0.1,0.5,0.1,0.6l2.1,1.6c0,0.3-0.1,0.7-0.1,1s0,0.7,0.1,1l-2.1,1.7
	c-0.2,0.2-0.2,0.4-0.1,0.6l2,3.5c0.1,0.2,0.4,0.3,0.6,0.2l2.5-1c0.5,0.4,1.1,0.7,1.7,1l0.4,2.7c0,0.2,0.2,0.4,0.5,0.4h4
	c0.3,0,0.5-0.2,0.5-0.4l0.4-2.7c0.6-0.3,1.2-0.6,1.7-1l2.5,1c0.2,0.1,0.5,0,0.6-0.2l2-3.5c0.1-0.2,0.1-0.5-0.1-0.6L-67.6,102z
	 M-75,104.5c-1.9,0-3.5-1.6-3.5-3.5s1.6-3.5,3.5-3.5s3.5,1.6,3.5,3.5S-73.1,104.5-75,104.5z"/>
</svg>
