<?xml version="1.0" encoding="utf-8"?>
<!-- Generator: Adobe Illustrator 19.0.0, SVG Export Plug-In . SVG Version: 6.00 Build 0)  -->
<svg version="1.1" id="Layer_1" xmlns="http://www.w3.org/2000/svg" xmlns:xlink="http://www.w3.org/1999/xlink" x="0px" y="0px"
	 viewBox="-87 89 24 24" style="enable-background:new -87 89 24 24;" xml:space="preserve">
<style type="text/css">
	.st0{fill:none;}
	.st1{fill:#9933CC;}
</style>
<path class="st0" d="M-87,89h24v24h-24V89z"/>
<path class="st1" d="M-80,103c-1.7,0-3,1.3-3,3c0,1.3-1.2,2-2,2c0.9,1.2,2.5,2,4,2c2.2,0,4-1.8,4-4C-77,104.3-78.3,103-80,103z
	 M-66.3,93.6l-1.3-1.3c-0.4-0.4-1-0.4-1.4,0l-9,9l2.8,2.8l9-9C-65.9,94.7-65.9,94-66.3,93.6z"/>
</svg>
