<?xml version="1.0" encoding="utf-8"?>
<!-- Generator: Adobe Illustrator 19.0.0, SVG Export Plug-In . SVG Version: 6.00 Build 0)  -->
<svg version="1.1" id="Layer_1" xmlns="http://www.w3.org/2000/svg" xmlns:xlink="http://www.w3.org/1999/xlink" x="0px" y="0px"
	 viewBox="-87 89 24 24" style="enable-background:new -87 89 24 24;" xml:space="preserve">
<style type="text/css">
	.st0{fill:none;}
	.st1{fill:#9933CC;}
</style>
<path class="st0" d="M-87,89h24v24h-24V89z"/>
<path class="st1" d="M-76,107h3c0.6,0,1-0.4,1-1v-4c0-0.6-0.4-1-1-1h-3c-0.6,0-1,0.4-1,1v4C-77,106.6-76.6,107-76,107z M-82,107h3
	c0.6,0,1-0.4,1-1V95c0-0.6-0.4-1-1-1h-3c-0.6,0-1,0.4-1,1v11C-83,106.6-82.6,107-82,107z M-70,107h3c0.6,0,1-0.4,1-1v-4
	c0-0.6-0.4-1-1-1h-3c-0.6,0-1,0.4-1,1v4C-71,106.6-70.6,107-70,107z M-77,95v4c0,0.6,0.4,1,1,1h9c0.6,0,1-0.4,1-1v-4
	c0-0.6-0.4-1-1-1h-9C-76.6,94-77,94.4-77,95z"/>
</svg>
